<svg width="41" height="40" viewBox="0 0 41 40" fill="none" xmlns="http://www.w3.org/2000/svg">
<path d="M35.7344 21.25H30.7344C30.0713 21.25 29.4354 21.5134 28.9666 21.9822C28.4978 22.4511 28.2344 23.087 28.2344 23.75V30C28.2344 30.663 28.4978 31.2989 28.9666 31.7678C29.4354 32.2366 30.0713 32.5 30.7344 32.5H33.2344C33.8974 32.5 34.5333 32.2366 35.0021 31.7678C35.471 31.2989 35.7344 30.663 35.7344 30V21.25ZM35.7344 21.25C35.7344 19.2696 35.3424 17.3088 34.5807 15.4807C33.8191 13.6527 32.703 11.9935 31.2969 10.599C29.8907 9.20444 28.2224 8.10216 26.388 7.35573C24.5537 6.6093 22.5897 6.2335 20.6094 6.25C18.6304 6.23557 16.6681 6.61291 14.8355 7.36026C13.003 8.10762 11.3365 9.21022 9.932 10.6045C8.52751 11.9989 7.41283 13.6573 6.65218 15.4844C5.89153 17.3114 5.49995 19.2709 5.5 21.25V30C5.5 30.663 5.76339 31.2989 6.23223 31.7678C6.70107 32.2366 7.33696 32.5 8 32.5H10.5C11.163 32.5 11.7989 32.2366 12.2678 31.7678C12.7366 31.2989 13 30.663 13 30V23.75C13 23.087 12.7366 22.4511 12.2678 21.9822C11.7989 21.5134 11.163 21.25 10.5 21.25H5.5" stroke="#151B3F" stroke-width="1.5" stroke-linecap="round" stroke-linejoin="round"/>
</svg>
