<svg width="41" height="40" viewBox="0 0 41 40" fill="none" xmlns="http://www.w3.org/2000/svg">
<path d="M35.5 27.7031V12.2969C35.4988 12.0743 35.439 11.8561 35.3265 11.664C35.214 11.472 35.0529 11.313 34.8594 11.2031L21.1094 3.46876C20.9241 3.36179 20.7139 3.30548 20.5 3.30548C20.2861 3.30548 20.0759 3.36179 19.8906 3.46876L6.14062 11.2031C5.94711 11.313 5.78599 11.472 5.67352 11.664C5.56105 11.8561 5.5012 12.0743 5.5 12.2969V27.7031C5.5012 27.9257 5.56105 28.144 5.67352 28.336C5.78599 28.528 5.94711 28.687 6.14062 28.7969L19.8906 36.5313C20.0759 36.6382 20.2861 36.6945 20.5 36.6945C20.7139 36.6945 20.9241 36.6382 21.1094 36.5313L34.8594 28.7969C35.0529 28.687 35.214 28.528 35.3265 28.336C35.439 28.144 35.4988 27.9257 35.5 27.7031V27.7031Z" stroke="#151B3F" stroke-width="1.5" stroke-linecap="round" stroke-linejoin="round"/>
<path d="M28.1562 23.8281V15.7031L13 7.34375" stroke="#151B3F" stroke-width="1.5" stroke-linecap="round" stroke-linejoin="round"/>
<path d="M35.3281 11.6562L20.6406 20L5.67188 11.6562" stroke="#151B3F" stroke-width="1.5" stroke-linecap="round" stroke-linejoin="round"/>
<path d="M20.6406 20L20.5 36.6875" stroke="#151B3F" stroke-width="1.5" stroke-linecap="round" stroke-linejoin="round"/>
</svg>
