<svg width="41" height="40" viewBox="0 0 41 40" fill="none" xmlns="http://www.w3.org/2000/svg">
<path d="M9.25 8.75V17.3594C9.25 23.5625 14.2187 28.7031 20.4219 28.75C21.9058 28.7603 23.3771 28.4769 24.7511 27.9162C26.125 27.3554 27.3744 26.5284 28.4274 25.4827C29.4803 24.437 30.316 23.1933 30.8862 21.8233C31.4565 20.4533 31.75 18.984 31.75 17.5V8.75C31.75 8.41848 31.6183 8.10054 31.3839 7.86612C31.1495 7.6317 30.8315 7.5 30.5 7.5H10.5C10.1685 7.5 9.85054 7.6317 9.61612 7.86612C9.3817 8.10054 9.25 8.41848 9.25 8.75Z" stroke="#151B3F" stroke-width="1.5" stroke-linecap="round" stroke-linejoin="round"/>
<path d="M15.5 35H25.5" stroke="#151B3F" stroke-width="1.5" stroke-linecap="round" stroke-linejoin="round"/>
<path d="M20.5 28.75V35" stroke="#151B3F" stroke-width="1.5" stroke-linecap="round" stroke-linejoin="round"/>
<path d="M31.4688 20H33C34.3261 20 35.5979 19.4732 36.5355 18.5355C37.4732 17.5979 38 16.3261 38 15V12.5C38 12.1685 37.8683 11.8505 37.6339 11.6161C37.3995 11.3817 37.0815 11.25 36.75 11.25H31.75" stroke="#151B3F" stroke-width="1.5" stroke-linecap="round" stroke-linejoin="round"/>
<path d="M9.5625 20H7.98438C6.65829 20 5.38652 19.4732 4.44884 18.5355C3.51116 17.5979 2.98438 16.3261 2.98438 15V12.5C2.98438 12.1685 3.11607 11.8505 3.35049 11.6161C3.58491 11.3817 3.90285 11.25 4.23438 11.25H9.23438" stroke="#151B3F" stroke-width="1.5" stroke-linecap="round" stroke-linejoin="round"/>
</svg>
